<?xml version="1.0" encoding="utf-8"?>
<!-- Generator: Adobe Illustrator 24.0.2, SVG Export Plug-In . SVG Version: 6.00 Build 0)  -->
<svg version="1.1" id="OBJECTS" xmlns="http://www.w3.org/2000/svg" xmlns:xlink="http://www.w3.org/1999/xlink" x="0px" y="0px"
	 viewBox="0 0 252.7 321" style="enable-background:new 0 0 252.7 321;" xml:space="preserve">
<style type="text/css">
	.st0{clip-path:url(#SVGID_2_);}
	.st1{fill:#BF1E2E;}
	.st2{opacity:0.4;clip-path:url(#SVGID_4_);fill:#BF1E2E;}
	.st3{fill:#E8F7FA;}
	.st4{fill:#FEB988;}
	.st5{fill:#FFB988;}
	.st6{fill:#823F1E;}
	.st7{clip-path:url(#SVGID_7_);}
	.st8{clip-path:url(#SVGID_8_);fill:none;}
	.st9{fill:#EA421B;}
	.st10{fill:#FF6F44;}
	.st11{fill:#F8BB13;}
	.st12{fill:#FFD1A0;}
	.st13{opacity:0.5;fill:#EA421B;}
	.st14{fill:#FFFFFF;}
	.st15{opacity:0.5;}
	.st16{opacity:0.5;clip-path:url(#SVGID_10_);fill:#BF1E2E;}
	.st17{opacity:0.6;clip-path:url(#SVGID_12_);fill:#EA421B;}
	.st18{fill:none;stroke:#C4C4C4;stroke-width:3;stroke-linecap:round;stroke-linejoin:round;stroke-miterlimit:10;}
	.st19{fill:#C9E9F6;}
	.st20{clip-path:url(#SVGID_2_);fill:none;stroke:#FFF0DD;stroke-width:3;stroke-miterlimit:10;}
	.st21{fill:none;stroke:#FFF0DD;stroke-width:3;stroke-miterlimit:10;}
	.st22{clip-path:url(#SVGID_2_);fill:#FFF0DD;}
	.st23{clip-path:url(#SVGID_2_);fill:#FFFFFF;}
</style>
<g>
	<defs>
		<rect id="SVGID_1_" x="-372" y="-72" width="635.8" height="393"/>
	</defs>
	<clipPath id="SVGID_2_">
		<use xlink:href="#SVGID_1_"  style="overflow:visible;"/>
	</clipPath>
	<g class="st0">
		<rect x="67.3" y="135.7" class="st1" width="144.5" height="166"/>
		<g>
			<defs>
				<rect id="SVGID_3_" x="67.3" y="135.7" width="144.5" height="166"/>
			</defs>
			<clipPath id="SVGID_4_">
				<use xlink:href="#SVGID_3_"  style="overflow:visible;"/>
			</clipPath>
			
				<rect x="76.6" y="55.8" transform="matrix(0.7071 -0.7071 0.7071 0.7071 -43.0811 133.4525)" class="st2" width="125.9" height="125.9"/>
		</g>
		<g>
			<g>
				<path class="st3" d="M179.8,112.1c1.3,3,0.7,6.6-0.2,9.7c-1,3.3-2.6,6.5-4.6,9.3c-3.7,5.3-9.2,9.3-15.3,11.4
					c-1.3,0.5-2.1,1.7-1.7,3.1c0.3,1.2,1.8,2.2,3.1,1.7c7.5-2.6,14-7.5,18.5-14c4.6-6.6,8-15.9,4.6-23.7c-0.5-1.2-2.4-1.5-3.4-0.9
					C179.4,109.4,179.3,110.9,179.8,112.1L179.8,112.1z"/>
			</g>
		</g>
		<g>
			<g>
				<path class="st3" d="M91.7,109.6c-3.4,7.8,0,17.1,4.6,23.7c4.5,6.5,11,11.4,18.5,14c1.3,0.5,2.7-0.5,3.1-1.7
					c0.4-1.4-0.5-2.6-1.7-3.1c-6.1-2.1-11.6-6.2-15.3-11.4c-2-2.8-3.5-5.9-4.6-9.1c-1-3.1-1.6-6.8-0.3-9.9c0.5-1.2,0.4-2.7-0.9-3.4
					C94.1,108.1,92.3,108.3,91.7,109.6L91.7,109.6z"/>
			</g>
		</g>
		<g>
			<path class="st4" d="M184.9,92.6c0,33.5-21.1,60.7-47,60.7c-26,0-47-27.2-47-60.7c0-33.5,21-60.7,47-60.7
				C163.8,31.9,184.9,59.1,184.9,92.6z"/>
			<path class="st4" d="M92.6,83.7c-1.4-3.8-10.5-4.8-13.2-2.6c-8.3,6.6,1.6,24,7.1,29.2c2.6,2.4,6.2,4.3,9.8,3.2
				c1.6-0.5,5.8-3.2,5-5.5C101.4,108,92.7,83.8,92.6,83.7z"/>
			<g>
				<path class="st4" d="M182.4,83.7c1.4-3.8,10.5-4.8,13.2-2.6c8.3,6.6-1.6,24-7.2,29.2c-2.6,2.4-6.2,4.2-9.8,3.2
					c-1.6-0.5-5.8-3.2-5-5.5C173.7,108,182.4,83.8,182.4,83.7z"/>
				<g>
					<path class="st5" d="M81.5,85.5c-0.3-0.1-0.6,0.4-0.2,0.6c2.6,1.3,4.9,3.3,6.7,5.6c-1.6,1.4-2.2,3.3-2.4,5.4
						c-0.2,2.1,1,5.2,3.5,4.9c0.4-0.1,0.6-0.4,0.5-0.8c-0.7-1.6-1.8-2.6-1.9-4.5c-0.1-1.4,0.4-2.9,1-4.2c0.2,0.2,0.4,0.5,0.5,0.7
						c1.9,2.8,2.6,6.2,4.4,8.9c0.3,0.5,0.9,0.2,1-0.3c0.4-3.3-1.8-7.4-3.8-9.9C88.1,88.7,85.2,86.8,81.5,85.5z"/>
					<path class="st5" d="M193.5,85.5c-3.8,1.3-6.7,3.2-9.2,6.3c-2,2.5-4.2,6.6-3.8,9.9c0.1,0.5,0.7,0.7,1,0.3
						c1.7-2.5,2.3-5.6,3.9-8.1c0.3-0.5,0.7-1,1-1.5c0.6,1.2,1,2.6,1,4c0.1,2-1.2,3.1-2,4.7c-0.1,0.3-0.1,0.7,0.3,0.8
						c2.6,0.4,3.6-2.5,3.6-4.6c0-2.1-0.9-4.2-2.4-5.6c1.8-2.3,4.1-4.3,6.7-5.5C194.1,85.9,193.9,85.4,193.5,85.5z"/>
				</g>
			</g>
		</g>
		<rect x="130.5" y="137.7" class="st4" width="15.3" height="35.2"/>
		<g>
			<g>
				<path class="st6" d="M99.3,91.9c3.3-4.5,2.8-11.4,3-16.8c0.1-3,0.2-6,0.2-9c0-1.4-0.3-2.8-0.7-4.2c-0.5-1.8-1.8-2.3-2.8-3.6
					c-1.2-1.8-3.4-1.8-4.6,0c-1.7,2.4-2.9,3.2-3.3,6.4c-0.3,2.9-0.1,5.9,0,8.8c0.2,5.7-0.5,13.5,3.1,18.3
					C95.6,93.9,97.9,93.9,99.3,91.9L99.3,91.9z"/>
			</g>
			<g>
				<path class="st6" d="M180.8,91.9c3.3-4.5,2.8-11.4,3-16.8c0.1-3,0.2-6,0.2-9c0-1.4-0.3-2.8-0.7-4.2c-0.5-1.8-1.8-2.3-2.8-3.6
					c-1.2-1.8-3.4-1.8-4.6,0c-1.7,2.4-2.9,3.2-3.3,6.4c-0.3,2.9-0.1,5.9,0,8.8c0.2,5.7-0.5,13.5,3.1,18.3
					C177.1,93.9,179.4,93.9,180.8,91.9L180.8,91.9z"/>
			</g>
		</g>
		<g>
			<g>
				<path class="st6" d="M113.8,95.8c0.8-1.8,2.6-3.6,4.7-3.9c2.4-0.3,2.4,2.8,3.7,4.1c0.9,1,3,0.6,3.2-0.9c0.6-4-2.5-7.3-6.4-7.6
					c-3.7-0.4-7.5,3-8.8,6.2C109.2,96.1,112.7,98.2,113.8,95.8L113.8,95.8z"/>
			</g>
			<g>
				<path class="st6" d="M162.7,95.8c-0.8-1.8-2.6-3.6-4.7-3.9c-2.4-0.3-2.4,2.8-3.7,4.1c-0.9,1-3,0.6-3.2-0.9
					c-0.6-4,2.5-7.3,6.4-7.6c3.7-0.4,7.5,3,8.8,6.2C167.3,96.1,163.8,98.2,162.7,95.8L162.7,95.8z"/>
			</g>
		</g>
		<g>
			<path class="st6" d="M126.1,72.9c-7.4-3.2-14.6,0.3-19.5,6c-1.9,2.2,0.7,6.3,3.3,4.3c2.9-2.2,8.1-4.3,11.5-2.1
				C126.6,84.4,131.6,75.3,126.1,72.9z"/>
			<path class="st6" d="M150.4,72.9c7.4-3.2,14.6,0.3,19.5,6c1.9,2.2-0.7,6.3-3.3,4.3c-2.9-2.2-8.1-4.3-11.5-2.1
				C149.9,84.4,144.9,75.3,150.4,72.9z"/>
		</g>
		<g>
			<defs>
				<polyline id="SVGID_5_" points="192.3,171 192.3,170.9 137.7,164.5 137.7,164.5 137.6,164.5 137.5,164.5 137.5,164.5 
					82.9,170.9 82.9,170.9 82.9,170.9 				"/>
			</defs>
			<defs>
				<polyline id="SVGID_6_" points="84.6,214.2 88.4,331.5 137.5,331.5 137.7,331.5 186.8,331.5 190.6,214.4 				"/>
			</defs>
			<clipPath id="SVGID_7_">
				<use xlink:href="#SVGID_5_"  style="overflow:visible;"/>
			</clipPath>
			<clipPath id="SVGID_8_" class="st7">
				<use xlink:href="#SVGID_6_"  style="overflow:visible;"/>
			</clipPath>
			<path class="st8" d="M103.9,158.7c-0.7,4.3,13.7,160.2,13.7,160.2l39,2.9l18-170.3L103.9,158.7z"/>
			<path class="st8" d="M162.4,167.8c0,8.2-11,14.8-24.5,14.8c-13.6,0-24.5-6.6-24.5-14.8c0-8.2,11-14.8,24.5-14.8
				C151.4,153,162.4,159.6,162.4,167.8z"/>
		</g>
		<polygon class="st9" points="192.7,171 192.7,170.9 138.1,164.5 138.1,164.5 138,164.5 137.9,164.5 137.9,164.5 83.3,170.9 
			83.3,170.9 83.3,170.9 85,214.2 88.8,331.5 137.9,331.5 138.1,331.5 187.2,331.5 191,214.4 		"/>
		<g>
			<path class="st9" d="M134.9,166c0,1.9-1.6,3.5-3.5,3.5h-11c-1.9,0-3.5-1.6-3.5-3.5v-4.5c0-1.9,1.6-3.5,3.5-3.5h11
				c1.9,0,3.5,1.6,3.5,3.5V166z"/>
			<path class="st9" d="M158.9,166c0,1.9-1.6,3.5-3.5,3.5h-11c-1.9,0-3.5-1.6-3.5-3.5v-4.5c0-1.9,1.6-3.5,3.5-3.5h11
				c1.9,0,3.5,1.6,3.5,3.5V166z"/>
		</g>
		<rect x="150.1" y="210.6" class="st10" width="26.2" height="6.1"/>
		<g>
			<path class="st9" d="M140.3,168.5c-11.5-1.3-23.3,0.6-34.7,1.5c-7,0.5-13.9,0.9-20.9,0.9c-7.3,0-17.4,0.7-22.9-5.2
				c-3.6-3.8-3.3-10.9-3.4-15.8c-0.2-17.1,0.3-34.4,1-51.4c0.1-3.4-0.9-6.7-2.6-9.4l-2.9,1.4L44.3,92l-15-1.5l-1.9-3.2
				c-2.4,3.1-3.9,7-4.1,11.2c-0.3,7.4-0.6,14.9-0.6,22.3c0,10.9-0.7,21.9-0.4,32.7c0.3,10.7,2.5,22.9,9.1,31.7
				c6.2,8.4,13.8,13.4,23.3,17.2c14.2,5.7,31.2,4.9,46.1,3.9c13-0.9,26.4-3.2,39.4-1.8c9.8,1.1,18-9,18-18
				C158.3,175.9,150.1,169.6,140.3,168.5z"/>
		</g>
		<rect x="136.1" y="172.6" class="st10" width="3.5" height="163.7"/>
		<g>
			<polygon class="st11" points="166.8,350.1 80.8,350.1 59.8,240.1 145.8,240.1 			"/>
			<polygon class="st12" points="118.2,238.1 111.7,238.1 111,234.7 89.3,234.7 90,238.1 83.5,238.1 84.8,245.1 119.5,245.1 			"/>
		</g>
		<path class="st9" d="M199.3,172.8c-8.3-3.7-17.9-2.5-22.9,6c-4.2,7.2-2.3,19.1,6,22.9c4.4,2,8.5,4.6,12.4,7.4
			c0.1,0.1,0.2,0.1,0.3,0.2c10.6,8.6,25.4,24.4,16.6,38.8c-6.7,11.1-23.1,15.3-35.5,14.6l10.3,33.6c6.4-1.3,12.7-3.4,18-5.2
			c18.6-6.2,33.9-16.6,41.2-35.5C258.5,222.7,227.8,185.7,199.3,172.8z"/>
		<g>
			<g>
				<path class="st1" d="M198.7,168.9c-4.4,19.5-1.2,38.6,10.7,55.7c5.1,7.3-7.9,13.9-13,6.7c-14.1-20.1-17.4-42.9-12.3-65.9
					C186.1,157,200.6,160.5,198.7,168.9L198.7,168.9z"/>
			</g>
			<g>
				<path class="st1" d="M80.4,168.9c4.4,19.5,1.2,38.6-10.7,55.7c-5.1,7.3,7.9,13.9,13,6.7c14.1-20.1,17.4-42.9,12.3-65.9
					C93,157,78.5,160.5,80.4,168.9L80.4,168.9z"/>
			</g>
		</g>
		<g>
			<path class="st13" d="M81.6,194.3c-7.7-0.4-15.4-1.6-22.4-4.4c-9.6-3.8-17.1-8.8-23.3-17.2c-6.6-8.8-8.7-20.9-9.1-31.7
				c-0.4-10.9,0.4-21.8,0.4-32.7c0-6.8,0.2-13.6,0.5-20.4l-0.3-0.6c-2.4,3.1-3.9,7-4.1,11.2c-0.3,7.4-0.6,14.9-0.6,22.3
				c0,10.9-0.7,21.9-0.4,32.7c0.3,10.7,2.5,22.9,9.1,31.7c6.2,8.4,13.8,13.4,23.3,17.2c7.4,3,15.6,4.1,23.9,4.5
				C80.1,202.8,81.1,198.6,81.6,194.3z"/>
		</g>
		<path class="st14" d="M35,90.6l17.3,1.5l-0.4-9c4.4-1.4,7.4-4.8,7.2-8.5c2.9-1.2,5.9-2.2,9-3c2.2-0.6,3.2-3.4,2.5-5.3
			c-0.8-2.3-3.1-3.1-5.3-2.5c-2.3,0.6-4.6,1.4-6.8,2.2l-0.3-3.4c-0.1-0.7-0.2-1.3-0.5-1.9c1-3.4,2.6-6.7,4.1-9.9
			c2.3-4.9-5.2-8.5-7.5-3.6c-1.3,2.7-2.5,5.5-3.6,8.3c-0.1,0-0.2,0-0.4-0.1c-0.4-3.9-0.9-7.7-1.5-11.6c-0.9-5.3-9.2-4.6-8.3,0.7
			c0.6,3.7,1,7.3,1.4,11l-1.6,0.1c-0.9-3.6-1.8-7.2-2.7-10.8c-1.3-5.2-9.1-2.3-7.8,2.9c0.8,3.1,1.5,6.1,2.3,9.2
			c-0.1,0.1-0.3,0.1-0.4,0.2c-2-2.1-3.9-4.3-5.5-6.7c-2.9-4.5-9.7,0.2-6.8,4.8c1.9,2.9,4.3,5.4,6.6,8c-0.2,0.7-0.3,1.4-0.2,2.2
			l1,11.9c0.3,3.5,3.5,6.3,7.7,7.2L35,90.6z"/>
		<g>
			<path class="st10" d="M22.5,94c12.2,5.4,26.2,6.3,38.6,1c3.8-1.6,4.6-7.1,2.7-10.3c-2.3-3.8-6.5-4.3-10.3-2.7
				c-6.8,2.9-16.8,1.9-23.4-1c-3.7-1.7-8-1.1-10.3,2.7C18,86.9,18.8,92.3,22.5,94L22.5,94z"/>
		</g>
		<g class="st15">
			<path class="st9" d="M234.5,201.6c7.6,13.8,10.6,29.4,4.9,44.2c-7.3,18.8-22.6,29.2-41.2,35.5c-4.5,1.5-9.6,3.2-14.9,4.5
				l3.2,10.6c6.4-1.3,12.7-3.4,18-5.2c18.6-6.2,33.9-16.6,41.2-35.5C252.8,237.3,246.5,217.7,234.5,201.6z"/>
		</g>
		<path class="st14" d="M181.8,288.4l-1.3-17.3c-2.9,0.6-5.8,1.2-8.7,1.9c0.3-0.1-4.5-4.9-5.4-5.2c-2.6-1-5-0.1-7.6,0.2
			c-4.6,0.5-8,0.4-12.5-0.2c-3.4-0.4-9.2-1.2-12,1.3c-2.3,2-1.8,6.3,1.4,7.2c2.9,0.8,5.8,1.6,8.8,2.2c0,0.1,0,0.3,0,0.4
			c-3.8,1-7.5,2.1-11.2,3.3c-5.1,1.7-3.1,9.8,2,8.1c3.5-1.2,7.1-2.2,10.7-3.2l0.4,1.6c-3.4,1.5-6.8,2.9-10.2,4.4
			c-4.9,2.1-0.8,9.4,4.1,7.3c2.9-1.3,5.8-2.5,8.7-3.8c0.1,0.1,0.2,0.3,0.2,0.4c-1.8,2.3-3.6,4.6-5.8,6.5c-4,3.6,1.8,9.5,5.8,6
			c2.6-2.3,4.6-5.1,6.8-7.8c0.7,0.1,1.5,0,2.2-0.2l11.6-2.9c3.5-0.9,5.7-4.4,5.9-8.7L181.8,288.4z"/>
		<g>
			<path class="st10" d="M168.7,263.5c-2.2,13.1,0.5,27,8.7,37.6c2.5,3.2,8,2.6,10.6,0c3.2-3.2,2.5-7.4,0-10.6
				c-4.6-5.9-6.1-15.8-4.9-23C184.8,258,170.3,254,168.7,263.5L168.7,263.5z"/>
		</g>
		<g>
			<defs>
				<path id="SVGID_9_" d="M195.6,81.1c-2.2-1.7-8.4-1.5-11.5,0.6c-0.1-0.9-0.3-1.7-0.4-2.6c0-1.4,0-2.8,0.1-4.1c0.1-3,0.2-6,0.2-9
					c0-1.4-0.3-2.8-0.7-4.2c-0.5-1.8-1.8-2.3-2.8-3.6c-1.1-1.6-2.9-1.7-4.2-0.5c-8.5-15.6-22.6-25.9-38.5-25.9
					c-16.1,0-30.3,10.5-38.8,26.4c0,0,0,0,0,0c-1.2-1.8-3.4-1.8-4.6,0c-1.7,2.4-2.9,3.2-3.3,6.4c-0.3,2.9-0.1,5.9,0,8.8
					c0.1,2.6,0,5.6,0.2,8.5c-3-2.4-9.7-2.7-11.9-0.9c-8.3,6.6,1.6,24,7.1,29.2c2,1.8,4.6,3.3,7.3,3.5c6.7,23.1,23.9,39.5,44.1,39.5
					c20.2,0,37.4-16.5,44.1-39.6c2.4-0.3,4.7-1.7,6.5-3.4C194,105.2,204,87.8,195.6,81.1z"/>
			</defs>
			<clipPath id="SVGID_10_">
				<use xlink:href="#SVGID_9_"  style="overflow:visible;"/>
			</clipPath>
			<path class="st16" d="M174.1,39.5c-15.7-23.8-70.3-23.3-85.6,0c-5.8,8.8-9.6,24.4-4.3,34.1c1.1,1.9,3.7,3.4,6,3.1
				c-0.4,3.1,0.1,5.8,2.5,6.8c5.6,2.3,12.5-3.4,17.1-6c12.8-7.4,30.4-7.3,43.2,0c4.6,2.6,11.5,8.3,17.1,6c2.4-1,2.9-3.7,2.5-6.8
				c2.3,0.3,4.9-1.1,6-3.1C183.7,63.9,179.8,48.2,174.1,39.5z"/>
		</g>
		<g>
			<g>
				<path class="st10" d="M146.8,17.9c0,4.7-3.8,8.5-8.5,8.5c-4.7,0-8.5-3.8-8.5-8.5s3.8-8.5,8.5-8.5
					C142.9,9.4,146.8,13.2,146.8,17.9z"/>
				<path class="st9" d="M181.1,32.5c-15.7-23.8-70.3-23.3-85.6,0c-5.8,8.8-9.6,24.4-4.3,34.1c1.2,2.2,4.5,3.8,7,2.8
					c5.7-2.3,13.4-3.6,19.9-4.4c3.9-0.5,7.9-0.7,11.8-0.9c2.8-0.1,5.8,0.1,8.4-0.8c2.6,0.9,5.7,0.7,8.4,0.8c4,0.2,7.9,0.4,11.8,0.9
					c3.3,0.4,6.5,1.1,9.7,1.8c3.3,0.7,7.1,1.4,10.2,2.6c2.5,1,5.7-0.6,7-2.8C190.7,56.9,186.8,41.2,181.1,32.5z"/>
				<g>
					<defs>
						<path id="SVGID_11_" d="M181.1,32.5c-15.7-23.8-70.3-23.3-85.6,0c-5.8,8.8-9.6,24.4-4.3,34.1c1.2,2.2,4.5,3.8,7,2.8
							c5.7-2.3,13.4-3.6,19.9-4.4c3.9-0.5,7.9-0.7,11.8-0.9c2.8-0.1,5.8,0.1,8.4-0.8c2.6,0.9,5.7,0.7,8.4,0.8
							c4,0.2,7.9,0.4,11.8,0.9c3.3,0.4,6.5,1.1,9.7,1.8c3.3,0.7,7.1,1.4,10.2,2.6c2.5,1,5.7-0.6,7-2.8
							C190.7,56.9,186.8,41.2,181.1,32.5z"/>
					</defs>
					<clipPath id="SVGID_12_">
						<use xlink:href="#SVGID_11_"  style="overflow:visible;"/>
					</clipPath>
					<path class="st17" d="M107.2,71.5c0,35.1,13.3,63.5,29.7,63.5c16.4,0,29.7-28.4,29.7-63.5S153.3,8,136.9,8
						C120.5,8,107.2,36.5,107.2,71.5z"/>
				</g>
			</g>
			<path class="st10" d="M175.9,58.1c-15.8-15.1-33.2-17.2-37.3-17.5c0,0,0,0,0,0s-0.2,0-0.4,0c-0.3,0-0.4,0-0.4,0s0,0,0,0
				c-4.1,0.3-21.4,2.4-37.3,17.5c-1.2,3.7-6.8,16-1,18.4c5.6,2.3,12.5-3.4,17.1-6c12.8-7.4,30.4-7.3,43.2,0c4.6,2.6,11.5,8.3,17.1,6
				C182.7,74,177.2,61.7,175.9,58.1z"/>
		</g>
		<g>
			<path class="st3" d="M186.1,83.5c2.1-2.1-1.2-5.4-3.3-3.3c-9.6,9.6-11.6,22.8-13.4,35.8c-3.2-3-7.5-6.2-8.5-6.9
				c-6.1-3.5-14.7-7.6-22.4-7.8c-0.2,0-0.4,0-0.7,0c-0.2,0-0.4,0-0.7,0c-7.8,0.2-16.3,4.3-22.4,7.8c-1,0.6-5.2,3.8-8.4,6.7
				c-1.7-13-3.8-26.1-13.4-35.7c-2.1-2.1-5.3,1.1-3.3,3.3c2.5,2.5,4.6,5.5,6.2,8.7c2.8,5.8,4.2,12,5.1,18.3c1,6.4,2.3,13.2,2.3,19.7
				c0,3.4-0.3,6.5-1,9.4c6.5,6.9,19.9,11.6,35.5,11.6c15.5,0,28.9-4.7,35.4-11.6c-0.6-2.8-1-6-1-9.4c0-6.3,1.4-13.2,2.4-19.4
				c1-6.2,2.2-12.8,5.1-18.5C181.4,89.2,183.6,86,186.1,83.5z"/>
			<path class="st18" d="M148.1,110.6c-1.7-1.7-3.6-3.1-5.5-3.9c-1.3-0.6-2.6-0.9-3.9-1c-0.1,0-0.2,0-0.3,0c-0.1,0-0.2,0-0.3,0
				c-1.3,0-2.6,0.3-3.9,1c-1.9,0.8-3.8,2.2-5.5,3.9"/>
			<g>
				<path class="st19" d="M138.7,125.8c10.2,0,20,0.3,29,0.9c-6.8-3.1-17.2-5-29-5c-11.8,0-22.3,2-29,5
					C118.7,126.1,128.5,125.8,138.7,125.8z"/>
				<path class="st19" d="M138.7,135.8c-10.2,0-20-0.3-29-0.9c6.8,3.1,17.2,5,29,5c11.8,0,22.3-2,29-5
					C158.7,135.5,149,135.8,138.7,135.8z"/>
			</g>
		</g>
	</g>
	<circle class="st20" cx="-21.3" cy="101" r="4.5"/>
	<g class="st0">
		<line class="st21" x1="-167.3" y1="259" x2="-156.8" y2="259"/>
		<line class="st21" x1="-162" y1="253.7" x2="-162" y2="264.2"/>
	</g>
	<g class="st0">
		<g>
			<rect x="-3.8" y="150.8" class="st14" width="10.5" height="3"/>
		</g>
		<g>
			<rect y="147.1" class="st14" width="3" height="10.5"/>
		</g>
	</g>
	<circle class="st22" cx="220.8" cy="43.5" r="3.9"/>
	<circle class="st23" cx="40.8" cy="233.5" r="3.9"/>
	<circle class="st22" cx="-68.8" cy="150.1" r="3.9"/>
</g>
<g>
	<g>
		<rect x="227.3" y="172.8" class="st14" width="10.5" height="3"/>
	</g>
	<g>
		<rect x="231" y="169.1" class="st14" width="3" height="10.5"/>
	</g>
</g>
</svg>
