<?xml version="1.0" encoding="utf-8"?>
<!-- Generator: Adobe Illustrator 24.0.2, SVG Export Plug-In . SVG Version: 6.00 Build 0)  -->
<svg version="1.1" id="_x2018_лой_x5F_1" xmlns="http://www.w3.org/2000/svg" xmlns:xlink="http://www.w3.org/1999/xlink"
	 x="0px" y="0px" viewBox="0 0 1204.5 1392" style="enable-background:new 0 0 1204.5 1392;" xml:space="preserve">
<style type="text/css">
	.st0{fill:#D5E5FB;}
	.st1{fill:#FFA561;}
	.st2{fill:#FFB27D;}
	.st3{fill:#163560;}
	.st4{fill:#F9DDBF;}
	.st5{fill:#F99746;}
	.st6{fill:#E8945B;}
	.st7{fill:#FFFFFF;}
	.st8{fill:#FFB176;}
	.st9{fill:#FCECDB;}
	.st10{fill:#DB7B33;}
	.st11{fill:#ED9B64;}
	.st12{fill:#93542A;}
	.st13{fill:#A05C35;}
	.st14{fill:#AF643A;}
	.st15{fill:#AAC9F5;}
	.st16{fill:#683112;}
	.st17{fill:#F2CFAF;}
</style>
<path class="st0" d="M1138.2,484.8v25.4H0c1.7-8.6,3.7-17,5.9-25.4H1138.2z"/>
<path class="st0" d="M1138.2,238.3v25.4H140.3c9-8.7,18.3-17.1,27.9-25.4H1138.2z"/>
<path class="st0" d="M1138.2,716.8v25.4H13c-2.5-8.5-4.8-17-6.9-25.4H1138.2z"/>
<rect x="1108.2" y="197.4" class="st0" width="29" height="647.7"/>
<rect x="32.1" y="835.1" class="st1" width="1172.2" height="556.8"/>
<g>
	<path class="st2" d="M754.4,826.6c-3.5-3.5-18.3-6.6-23.8-6.6h-0.1c-5.3,0-9.9-3.7-11.1-8.8c-18.6-76.8-43-77.4-52.8-151.1
		c-10.3-77.7-39.3-109.7-39.3-109.7l-18.1,81.9c0,0,23,85.2,32.5,100.4c8.1,13,50.4,71.2,62.2,87.5c1.7,2.3,3,4.8,3.6,7.6
		c2,8.6,7.9,7.7,7.9,7.7h47.1C762.6,835.6,757.9,830.1,754.4,826.6z"/>
	<path class="st3" d="M526.6,444.8c0,0-11.5,37.9-46.5,40.3c0,0-33.9,7.3-32.8,31.4c1.1,24.1-0.5,35.2-12,43.9
		c-11.5,8.7,11.5,46.5,49.8,31.2c38.3-15.3,66.1-58.7,66.7-59.5C552.3,531.3,526.6,444.8,526.6,444.8z"/>
	<path class="st4" d="M609.5,540.5c0,0,26.1,8.6,33.9,23.4c7.8,14.8,36.6,102.2,36.6,102.2s-6.2,28.7-40,24.6
		C606.3,686.7,609.5,540.5,609.5,540.5z"/>
	<path class="st3" d="M615.1,409.7c0,0-3.1-27.9-72.8-22.9c-11.8,0.8-27.5,14.7-32.9,25.2c-7.8,15.3-3.5,19.9,21.8,63.1L615.1,409.7
		z"/>
	<path class="st2" d="M497.4,717.1c0.2-7.9,0.2-16,0.1-24c-0.5-26.4-4-47.1-8.1-64.3c-3.2-13.7-6.9-25.2-9.6-35.4
		c-4.5-17-6.6-30.9-0.4-46.3c0,0,2.5-1.1,7-2.7c4.1-1.4,9.8-3.3,16.9-5c2.7-0.7,5.6-1.4,8.7-2c2.5-0.5,7.6-1.4,11.4-2
		c3.1-0.5,5.6-2.8,6.5-5.8c0.9-3.1,1.7-7.2,2.3-12.6c0.9-8.5,1.1-20.2-0.5-36c-0.2-1.8-0.4-3.7-0.6-5.6l4.9,1.5l19.6,6l32.2,9.8
		c0,0-0.9,5.2-1.1,13v1.2c0,2.4,0,5,0.2,7.8c0.3,5.2,0.9,11,2.3,16.9c0.6,2.4,2.4,4.3,4.9,4.8l0,0c0.8,0.2,1.7,0.3,2.5,0.5
		c0.2,0,0.3,0.1,0.4,0.1c0.3,0.1,0.7,0.2,1.1,0.2c3.3,1,6.3,2.7,9.8,3.7c0.6,0.2,1.1,0.5,1.6,1.1c2.2,2.2,4.2,7.6,6.5,15.1
		c2.3,7.6,4.8,17.4,8.2,28.4c0,0.1,0,0.2,0.1,0.3c3.1,10.3,6.9,21.5,11.7,33c0,0,3.3,14.8,4.8,34.2c0,0.2,0,0.5,0.1,0.7
		c0.2,2.9,0.3,5.9,0.5,8.9c0.3,9.3,0.1,19.2-1.2,28.6c0,0.1,0,0.2-0.1,0.2c-0.7,5.7-1.9,11.2-3.5,16.3c-2.2,6.9-3.1,16.4-3.4,27.4
		c-0.6,32,5.5,76.2,9.4,100.7H484.8c3.6-19.6,8.8-52.9,11.3-90.4C496.7,735.9,497.2,726.6,497.4,717.1
		C497.5,717.2,497.5,717.1,497.4,717.1z"/>
	<path class="st4" d="M469.1,583.1c1.5,35.6,16.3,87.2,19.7,150.7c0.3,5.7,3.7,9.7,9.4,12.4c34.3,16.3,150.9-15.5,150.9-15.5
		s-1.7-22.4-0.5-36.9c0.3-4.1-12.3-115.1-34.2-139.1c0,0-4.9-14.1-17.3-18.1c-1-0.3-2-0.5-3-0.7c0,0,12.5,19.3-14.8,19.5
		c-27.4,0.2-50.3-15.6-54.4-20.6c0,0-42.4,0.2-50.2,14.8C470,558.3,468.6,569.6,469.1,583.1z"/>
	<path class="st5" d="M510.8,535.5c0,0,18.5,24.4,26.1,49.8h-13.5c0,0-12.5-38.3-21.9-48.5L510.8,535.5z"/>
	<path class="st5" d="M597,536.5c9.4,11.3,22.3,50.8,22.3,50.8l13-2c-5.5-19.3-16.8-36.2-22.8-44.8C605.6,539.2,601,537.3,597,536.5
		z"/>
	<path class="st5" d="M651.2,721.1l-2.8-32.9v0l0-0.3v0l-1.8-21.1v0l-1.2-13.7l-0.1-0.8l-0.5-5.4l-4.6-54.3c-0.4-4.6-4-8.1-8.3-8.4
		h0c-0.7,0-1.3,0-2,0.1c-0.4,0.1-0.9,0.2-1.4,0.2c-1.3,0.2-2.8,0.4-4.3,0.6c-0.8,0.1-1.6,0.2-2.5,0.3c-2.9,0.4-6.1,0.7-9.7,1.1h0
		c-18.4,1.7-44.6,2.7-74.6-1c-0.3,0-0.7-0.1-1-0.1l-4.3,0h-0.1l-8.4-0.1h-0.2c-6.2,0.1-11.3,5.2-11.3,11.7c0,13.3-0.4,36-2.6,59.5v0
		c0,0,0,0,0,0c-2.1,22.1-5.7,44.8-12.1,60.6c0,0,0,0.1,0,0.1c-2.1,5.3-4.6,9.9-7.4,13.4c-0.5,0.6-0.9,1.3-1.3,2.1
		c-0.4,0.8-0.6,1.6-0.7,2.5l-13.7,100.3h178.5C653.1,799,653.2,735.1,651.2,721.1z"/>
	<path class="st6" d="M586.7,505.8c0,2.6,0,5.4,0.2,8.4c-54-13.1-53-32.9-53-32.9l53.9,11c0,0-0.9,5.2-1.1,13V505.8z"/>
	<path class="st2" d="M598.8,506.8c0,0-69.1,3.2-70.4-39.9c-1.3-43.1-11.1-71.7,33-75.5c44.1-3.8,53.2,12.3,57.1,26.6
		C622.4,432.2,616.8,504.8,598.8,506.8z"/>
	<path class="st3" d="M604,405.2c0,0,18.1,21.7,14.8,45.5c0,0,18.1-9.5,11.4-31c-4.1-13.2-18.1-26-37-26
		C574.2,393.7,604,405.2,604,405.2z"/>
	<path class="st7" d="M608.1,481.9c0,0-1.6,8-12.2,8c-5.5,0-13.2-3.3-13.5-8C582.4,481.9,595.9,478.4,608.1,481.9z"/>
	<path class="st3" d="M603.9,402.4c0,0-12.9,34.9-44.8,37.8c-32,2.9-31.1,29-31.1,29l-8.3-61.5c0,0,18.1-18.3,19.7-18.7
		c1.6-0.4,33.7-0.4,33.7-0.4L603.9,402.4z"/>
	<path class="st5" d="M585.4,354.5c0,0,17.1,8.2,29.8,45.7l-19,0L585.4,354.5z"/>
	<path class="st8" d="M596.2,400.2c0,0-53.6,0.8-72.2-5.3c0,0,0.1-21.6,22.1-43.2l39.3,2.8C585.4,354.5,598.8,386.7,596.2,400.2z"/>
	<path class="st2" d="M494.7,632.2L477,546.8c0,0-29.3,35.5-39.6,113.2c-9.8,73.9-19.7,60-51.5,151.4c-1.3,3.8-4.5,6.8-8.4,7.7
		c-1.8,0.4-3.7,0.8-5.6,0.8c-5.5,0-20.3,3.1-23.8,6.6c-3.5,3.5-8.2,9-8.2,9h47.1c0,0,7.8,1.8,9.9-11c0,0,55.8-76.6,65.3-91.8
		C471.8,717.4,494.7,632.2,494.7,632.2z"/>
	<path class="st4" d="M488.3,540.2c0,0-14.3-0.1-36.5,35c-22.2,35.1-31.2,71.3-31.2,71.3s10.3,28.4,67.7,35.1l14.9-34.7L488.3,540.2
		z"/>
</g>
<g>
	<g>
		<path class="st9" d="M170.8,975.6h-29.3c-22.5,0-40.7-18.2-40.7-40.7v-83h110.7v83C211.5,957.4,193.3,975.6,170.8,975.6z"/>
		<g>
			<path class="st5" d="M100.8,851.9v83c0,22.5-18.2,40.7-40.7,40.7H30.8c-10.6,0-20.3-4.1-27.5-10.7c0.5-1,1-1.9,1.5-2.9
				c6.4-12.6,11.9-25.7,16.4-39.5c3.7-11.6,6.6-23.7,8.6-36.4c0.5-3.2,0.9-6.4,1.3-9.6c0.4-3.8,0.7-7.7,1-11.6v0
				c0.2-3.2,0.3-6.5,0.4-9.8c0-1,0-2.1,0-3.1v-0.1H100.8z"/>
			<path class="st5" d="M281.5,975.6h-29.3c-22.5,0-40.7-18.2-40.7-40.7v-83h110.7v83C322.2,957.4,303.9,975.6,281.5,975.6z"/>
			<path class="st9" d="M389.2,975.6h-29.3c-22.5,0-40.7-18.2-40.7-40.7v-83h110.7v83C429.9,957.4,411.7,975.6,389.2,975.6z"/>
			<path class="st5" d="M499.9,975.6h-29.3c-22.5,0-40.7-18.2-40.7-40.7v-83h110.7v83C540.6,957.4,522.3,975.6,499.9,975.6z"/>
			<path class="st9" d="M610.5,975.6h-29.3c-22.5,0-40.7-18.2-40.7-40.7v-83h110.7v83C651.2,957.4,633,975.6,610.5,975.6z"/>
			<path class="st5" d="M721.2,975.6h-29.3c-22.5,0-40.7-18.2-40.7-40.7v-83h110.7v83C761.9,957.4,743.7,975.6,721.2,975.6z"/>
			<path class="st9" d="M831.9,975.6h-29.3c-22.5,0-40.7-18.2-40.7-40.7v-83h110.7v83C872.6,957.4,854.3,975.6,831.9,975.6z"/>
			<path class="st5" d="M942.5,975.6h-29.3c-22.5,0-40.7-18.2-40.7-40.7v-83h110.7v83C983.2,957.4,965,975.6,942.5,975.6z"/>
			<path class="st9" d="M1053.2,975.6h-29.3c-22.5,0-40.7-18.2-40.7-40.7v-83h110.7v83C1093.9,957.4,1075.7,975.6,1053.2,975.6z"/>
			<path class="st5" d="M1163.9,975.6h-29.3c-22.5,0-40.7-18.2-40.7-40.7v-83h110.7v83C1204.5,957.4,1186.3,975.6,1163.9,975.6z"/>
		</g>
	</g>
</g>
<g>
	<g>
		<g>
			<path class="st9" d="M559.4,1326.6l-1.2-0.7c0.2-0.3,20.5-34.2,55.4-72.6c32.2-35.5,83.9-82.2,146.9-103.5l0.5,1.4
				c-62.8,21.2-114.2,67.7-146.3,103.1C579.8,1292.5,559.6,1326.3,559.4,1326.6z"/>
		</g>
		<g>
			<path class="st9" d="M657.6,1144.9c0,0-9.4,24.1-8.8,34.2c0.6,10.1,15.3,28.2,15.3,28.2s11.1-21.6,10.9-29.6
				C674.8,1169.7,657.6,1144.9,657.6,1144.9z"/>
			<path class="st9" d="M719.6,1232.4c0,0-15.7-20.5-24.6-25.3c-8.9-4.7-32-1.6-32-1.6s12.7,20.8,19.6,24.7
				C689.5,1234.3,719.6,1232.4,719.6,1232.4z"/>
			<path class="st9" d="M702.7,1127.9c0,0-17.1,19.4-20,29s4.6,31.7,4.6,31.7s17.9-16.4,20.5-24
				C710.4,1157.1,702.7,1127.9,702.7,1127.9z"/>
			<path class="st9" d="M746.4,1208c0,0-17.8-18.8-27.1-22.6c-9.4-3.8-32,1.7-32,1.7s14.7,19.3,22,22.6S746.4,1208,746.4,1208z"/>
			<path class="st9" d="M746.2,1119.2c0,0-21.6,13.1-27.1,21.2c-5.5,8.2-4.9,30.9-4.9,30.9s21.5-10.1,26.1-16.4
				C744.9,1148.6,746.2,1119.2,746.2,1119.2z"/>
			<path class="st9" d="M774.1,1178.8c0,0-20.9-14.2-30.6-15.9c-9.7-1.7-30.1,8.3-30.1,8.3s18.1,15.3,25.7,16.9
				C746.8,1189.7,774.1,1178.8,774.1,1178.8z"/>
			<path class="st9" d="M801.3,1125.5c0,0-25.2,0.6-34.1,4.9s-19.7,24.3-19.7,24.3s23.6,2,30.8-1.2
				C785.4,1150.3,801.3,1125.5,801.3,1125.5z"/>
			<path class="st9" d="M631.1,1168.8c0,0-9.2,24.2-8.6,34.2c0.6,10.1,15.1,28,15.1,28s10.9-21.7,10.7-29.7
				S631.1,1168.8,631.1,1168.8z"/>
			<path class="st9" d="M696.6,1245.6c0,0-19.5-17-29.2-19.9c-9.7-2.9-31.5,4.5-31.5,4.5s16.6,17.7,24.1,20.3
				C667.7,1253.1,696.6,1245.6,696.6,1245.6z"/>
			<path class="st9" d="M599.9,1191.9c0,0-10.6,27.5-10,39c0.6,11.5,17,32,17,32s12.6-24.7,12.4-33.8
				C619.1,1220,599.9,1191.9,599.9,1191.9z"/>
			<path class="st9" d="M676.8,1267.7c0,0-25.1-15.5-36.5-17c-11.4-1.5-34.6,10.9-34.6,10.9s22,16.9,30.9,18.4
				C645.6,1281.5,676.8,1267.7,676.8,1267.7z"/>
			<path class="st9" d="M565.9,1216.3c0,0-9.8,32-8.1,44.9c1.6,12.9,21.9,34.8,21.9,34.8s12.2-28.9,11.3-39.2
				C590,1246.5,565.9,1216.3,565.9,1216.3z"/>
			<path class="st9" d="M660,1291.4c0,0-30.6-13.5-43.6-13.5s-37.2,17.5-37.2,17.5s27.3,15.6,37.6,15.9
				C627.1,1311.7,660,1291.4,660,1291.4z"/>
		</g>
	</g>
	<g>
		<g>
			<path class="st9" d="M513.7,1312.3l1.3,0.6c0.2-0.4,17-36.1,29.4-86.5c11.5-46.5,21.5-115.5,4-179.7l-1.4,0.4
				c17.4,63.9,7.4,132.6-4,178.9C530.6,1276.4,513.9,1312,513.7,1312.3z"/>
		</g>
		<g>
			<path class="st9" d="M609.7,1129.4c0,0-14.8,21.2-23.5,26.3c-8.7,5.1-31.9,3-31.9,3s11.7-21.3,18.5-25.6
				C579.6,1128.9,609.7,1129.4,609.7,1129.4z"/>
			<path class="st9" d="M502.5,1126.8c0,0,25.8,1.6,34.7,6.3c8.9,4.8,19.2,25.6,19.2,25.6s-24.3,1.1-31.5-2.5
				C517.8,1152.8,502.5,1126.8,502.5,1126.8z"/>
			<path class="st9" d="M598.7,1082.5c0,0-6.6,25-12.9,32.8c-6.4,7.8-28.9,13.8-28.9,13.8s3.7-24,8.5-30.4
				S598.7,1082.5,598.7,1082.5z"/>
			<path class="st9" d="M507.8,1090.9c0,0,25.5,4.3,33.9,9.9s16.4,27.5,16.4,27.5s-24.3-1.5-31-5.7
				C520.3,1118.4,507.8,1090.9,507.8,1090.9z"/>
			<path class="st9" d="M581.6,1041.6c0,0,1.2,25.2-2.5,34.4s-22.9,21.3-22.9,21.3s-3.6-23.5-0.9-30.8
				C558,1059.1,581.6,1041.6,581.6,1041.6z"/>
			<path class="st9" d="M516.7,1051.6c0,0,23.4,9.4,30.2,16.5c6.8,7.1,9.9,29.7,9.9,29.7s-22.8-6.5-28.4-11.9
				C522.8,1080.4,516.7,1051.6,516.7,1051.6z"/>
			<path class="st9" d="M545.8,999.4c0,0,13.6,21.3,15,31c1.4,9.8-9.2,29.9-9.2,29.9s-14.8-18.5-16.1-26.2
				C534,1026.4,545.8,999.4,545.8,999.4z"/>
			<path class="st9" d="M604.7,1164.8c0,0-14.9,21.1-23.6,26.2c-8.7,5.1-31.6,3.1-31.6,3.1s11.9-21.2,18.6-25.5
				C574.9,1164.4,604.7,1164.8,604.7,1164.8z"/>
			<path class="st9" d="M504.4,1153.2c0,0,25,6.7,32.8,13.1s13.8,28.6,13.8,28.6s-24-3.9-30.3-8.7
				C514.3,1181.4,504.4,1153.2,504.4,1153.2z"/>
		</g>
	</g>
	<path class="st9" d="M693.8,1088.5c0,0-13.1,21.6-21.2,27.1c-8.2,5.5-30.9,4.9-30.9,4.9s10.1-21.5,16.4-26.1
		C664.4,1089.9,693.8,1088.5,693.8,1088.5z"/>
	<path class="st9" d="M634.2,1060.7c0,0,14.2,20.9,15.9,30.6c1.7,9.7-8.3,30.1-8.3,30.1s-15.3-18.1-16.9-25.7
		C623.3,1088,634.2,1060.7,634.2,1060.7z"/>
	<path class="st9" d="M687.5,1033.5c0,0-0.6,25.2-4.9,34.1c-4.3,8.9-24.3,19.7-24.3,19.7s-2-23.6,1.2-30.8
		S687.5,1033.5,687.5,1033.5z"/>
</g>
<g>
	<path class="st10" d="M728.1,1336.9c-16.3,9.9-301.3,16.6-296.8-9.1c0,0,5.8-47.1,66.4-72c10.7-4.4,23.1-8.1,37.4-10.7
		c14.9-2.7,31.9-4.3,51.3-4.3c0,0,0,0,0,0c1.3,0,2.6,0,3.9,0c18,0.2,33.9,1.6,47.9,4c13.5,2.3,25.3,5.4,35.5,9.2c0,0,0,0,0,0
		c7.2,2.7,13.5,5.6,19.2,8.8C740,1289.1,739.2,1330.1,728.1,1336.9z"/>
	<path class="st11" d="M638.3,1244.9c-16.8,3.5-75.6,16.9-107.1,40.1c0.6-1.2,18.5-34.1,55.2-44.1c0,0,0,0,0,0c1.3,0,2.6,0,3.9,0
		C608.4,1241.1,624.3,1242.5,638.3,1244.9z"/>
	<path class="st11" d="M693,1262.9c-23.3,3.9-56.8,11.1-78.1,22.3c0,0,20.1-26.9,58.8-31.1c0,0,0,0,0,0
		C681,1256.7,687.3,1259.7,693,1262.9z"/>
	<path class="st11" d="M535.1,1245.1c-19.2,11.1-42.8,26.5-56.3,41.7c0,0,4.2-15.8,18.9-31C508.4,1251.5,520.8,1247.8,535.1,1245.1z
		"/>
</g>
<g>
	<path class="st11" d="M957.5,210.2c-10.8,6.6-199.3,11-196.3-6c0,0,3.8-31.1,43.9-47.6c7.1-2.9,15.3-5.3,24.8-7.1
		c9.8-1.8,21.1-2.8,33.9-2.8c0,0,0,0,0,0c0.9,0,1.7,0,2.6,0c11.9,0.1,22.4,1.1,31.7,2.6c8.9,1.5,16.7,3.6,23.5,6.1c0,0,0,0,0,0
		c4.7,1.8,8.9,3.7,12.7,5.8C965.4,178.6,964.8,205.7,957.5,210.2z"/>
	<path class="st12" d="M898.1,149.4c-11.1,2.3-50,11.1-70.8,26.5c0.4-0.8,12.2-22.5,36.5-29.2c0,0,0,0,0,0c0.9,0,1.7,0,2.6,0
		C878.3,146.8,888.9,147.8,898.1,149.4z"/>
	<path class="st12" d="M934.3,161.2c-15.4,2.6-37.6,7.3-51.6,14.7c0,0,13.3-17.8,38.9-20.6c0,0,0,0,0,0
		C926.4,157.2,930.6,159.1,934.3,161.2z"/>
	<path class="st12" d="M829.9,149.5c-12.7,7.4-28.3,17.5-37.2,27.5c0,0,2.8-10.5,12.5-20.5C812.2,153.7,820.4,151.3,829.9,149.5z"/>
</g>
<g>
	<path class="st10" d="M804.2,213.5c-10.8,6.6-199.3,11-196.3-6c0,0,3.8-31.1,43.9-47.6c7.1-2.9,15.3-5.3,24.8-7.1
		c9.8-1.8,21.1-2.8,33.9-2.8c0,0,0,0,0,0c0.9,0,1.7,0,2.6,0c11.9,0.1,22.4,1.1,31.7,2.6c8.9,1.5,16.7,3.6,23.5,6.1c0,0,0,0,0,0
		c4.7,1.8,8.9,3.7,12.7,5.8C812,181.9,811.5,209,804.2,213.5z"/>
	<path class="st11" d="M744.8,152.7c-11.1,2.3-50,11.1-70.8,26.5c0.4-0.8,12.2-22.5,36.5-29.2c0,0,0,0,0,0c0.9,0,1.7,0,2.6,0
		C725,150.2,735.5,151.1,744.8,152.7z"/>
	<path class="st11" d="M781,164.6c-15.4,2.6-37.6,7.3-51.6,14.7c0,0,13.3-17.8,38.9-20.6c0,0,0,0,0,0
		C773,160.5,777.2,162.5,781,164.6z"/>
	<path class="st11" d="M676.5,152.8c-12.7,7.4-28.3,17.5-37.2,27.5c0,0,2.8-10.5,12.5-20.5C658.9,157,667,154.6,676.5,152.8z"/>
</g>
<g>
	<g>
		<path class="st11" d="M786.4,470.6h-47.8c-7.3,0-13.3-5.9-13.3-13.3v-64.1c0-7.3,5.9-13.3,13.3-13.3h47.8
			c7.3,0,13.3,5.9,13.3,13.3v64.1C799.7,464.7,793.7,470.6,786.4,470.6z"/>
		<path class="st10" d="M858.7,470.6h-68.2c-8.4,0-15.3-6.8-15.3-15.3v-60.1c0-8.4,6.8-15.3,15.3-15.3h68.2
			c8.4,0,15.3,6.8,15.3,15.3v60.1C874,463.8,867.1,470.6,858.7,470.6z"/>
		<path class="st12" d="M777,391.5l96.2,1.8c0,0,14.5-3.6,13.4-16.7c-1.2-13.7-10.4-15.9-41.1-18.3c-30.7-2.5-110.8-10.5-122.3,8
			c-6.7,10.9-8.9,24.9,2.2,27C725.4,393.2,743.2,374,777,391.5z"/>
	</g>
</g>
<g>
	<g>
		<path class="st11" d="M878.2,470.6h-47.8c-7.3,0-13.3-5.9-13.3-13.3v-64.1c0-7.3,5.9-13.3,13.3-13.3h47.8
			c7.3,0,13.3,5.9,13.3,13.3v64.1C891.5,464.7,885.6,470.6,878.2,470.6z"/>
		<path class="st10" d="M950.5,470.6h-68.2c-8.4,0-15.3-6.8-15.3-15.3v-60.1c0-8.4,6.8-15.3,15.3-15.3h68.2
			c8.4,0,15.3,6.8,15.3,15.3v60.1C965.8,463.8,958.9,470.6,950.5,470.6z"/>
		<path class="st13" d="M868.8,391.5l96.2,1.8c0,0,14.5-3.6,13.4-16.7c-1.2-13.7-10.4-15.9-41.1-18.3c-30.7-2.5-110.8-10.5-122.3,8
			c-6.7,10.9-8.9,24.9,2.2,27C817.2,393.2,835,374,868.8,391.5z"/>
	</g>
</g>
<g>
	<path class="st10" d="M498.5,213.5c-10.8,6.6-199.3,11-196.3-6c0,0,3.8-31.1,43.9-47.6c7.1-2.9,15.3-5.3,24.8-7.1
		c9.8-1.8,21.1-2.8,33.9-2.8c0,0,0,0,0,0c0.9,0,1.7,0,2.6,0c11.9,0.1,22.4,1.1,31.7,2.6c8.9,1.5,16.7,3.6,23.5,6.1c0,0,0,0,0,0
		c4.7,1.8,8.9,3.7,12.7,5.8C506.3,181.9,505.8,209,498.5,213.5z"/>
	<path class="st11" d="M439,152.7c-11.1,2.3-50,11.1-70.8,26.5c0.4-0.8,12.2-22.5,36.5-29.2c0,0,0,0,0,0c0.9,0,1.7,0,2.6,0
		C419.3,150.2,429.8,151.1,439,152.7z"/>
	<path class="st11" d="M475.3,164.6c-15.4,2.6-37.6,7.3-51.6,14.7c0,0,13.3-17.8,38.9-20.6c0,0,0,0,0,0
		C467.3,160.5,471.5,162.5,475.3,164.6z"/>
	<path class="st11" d="M370.8,152.8c-12.7,7.4-28.3,17.5-37.2,27.5c0,0,2.8-10.5,12.5-20.5C353.1,157,361.3,154.6,370.8,152.8z"/>
</g>
<g>
	<path class="st10" d="M913.6,720.8c-13.3-2.8-130-127.8-112.1-161.9c0,0,23.2-15.2,65.1,1.7c3.3,1.3,6.6,2.9,10,4.7
		c4.2,2.3,8.5,5,12.9,8.2c2,1.5,4,3.1,6,4.8c3.5,3,7.1,6.2,10.6,9.9c2.7,2.7,5.4,5.7,8.1,8.8c0,0,0,0,0,0c0.6,0.7,1.1,1.3,1.7,2
		c2.3,2.8,4.4,5.5,6.4,8.2c3.4,4.6,6.4,9.1,9,13.5c0.9,1.5,1.8,3.1,2.6,4.6c2,3.8,3.8,7.4,5.3,11c1.7,4.1,3,8,4.1,11.9c0,0,0,0,0,0
		c1.4,5.1,2.2,9.9,2.6,14.5C949.3,700.6,922.7,722.6,913.6,720.8z"/>
	<path class="st11" d="M922.4,607.2c-23.2,2.7-49.5,8.2-69.7,19.1c0.9-1.1,22.5-28.6,53.5-38.1c2.7,2.7,5.4,5.7,8.1,8.8c0,0,0,0,0,0
		c0.6,0.7,1.1,1.3,1.7,2C918.2,601.8,920.4,604.5,922.4,607.2z"/>
	<path class="st11" d="M895.5,578.3c-18.7,3.2-38,8.4-53.6,16.8c0.7-0.9,14-17.9,34.6-29.8c4.2,2.3,8.5,5,12.9,8.2
		C891.5,575,893.5,576.6,895.5,578.3z"/>
	<path class="st11" d="M939.2,636.3c-15.5,3.3-31,8-43.9,15c0.7-0.9,14.6-18.6,36-30.6c0.9,1.5,1.8,3.1,2.6,4.6
		C936,629.1,937.7,632.7,939.2,636.3z"/>
</g>
<g>
	<path class="st11" d="M958.7,733.8c-12-6.5-87.5-160-60.6-187.4c0,0,26.6-7.8,61.8,20.5c2.8,2.2,5.5,4.7,8.2,7.4
		c3.4,3.4,6.7,7.3,10,11.6c1.5,2,3,4.1,4.4,6.3c2.5,3.9,5,8,7.3,12.5c1.8,3.4,3.5,7,5.2,10.8c0,0,0,0,0,0c0.3,0.8,0.7,1.6,1,2.4
		c1.4,3.3,2.7,6.5,3.8,9.7c1.9,5.4,3.5,10.6,4.7,15.5c0.4,1.7,0.8,3.5,1.2,5.1c0.9,4.2,1.5,8.2,1.9,12.1c0.4,4.4,0.6,8.6,0.5,12.5
		c0,0,0,0,0,0c-0.2,5.2-0.7,10.1-1.7,14.6C998.7,724.8,966.8,738.2,958.7,733.8z"/>
	<path class="st14" d="M999.9,627.6c-23-4.1-49.8-6.4-72.2-1.9c1.2-0.8,29.8-20.9,62.3-21c1.8,3.4,3.5,7,5.2,10.8c0,0,0,0,0,0
		c0.3,0.8,0.7,1.6,1,2.4C997.5,621.2,998.7,624.4,999.9,627.6z"/>
	<path class="st14" d="M982.6,592.2c-18.8-2.3-38.8-2.9-56.1,0.6c0.9-0.7,18.6-13,41.8-18.5c3.4,3.4,6.7,7.3,10,11.6
		C979.6,587.9,981.1,590,982.6,592.2z"/>
	<path class="st14" d="M1007.6,660.4c-15.8-1.4-32-1.3-46.3,1.6c1-0.7,19.4-13.6,43.3-18.8c0.4,1.7,0.8,3.5,1.2,5.1
		C1006.6,652.5,1007.2,656.5,1007.6,660.4z"/>
</g>
<g>
	<path class="st11" d="M655.5,210.2c-10.8,6.6-199.3,11-196.3-6c0,0,3.8-31.1,43.9-47.6c7.1-2.9,15.3-5.3,24.8-7.1
		c9.8-1.8,21.1-2.8,33.9-2.8c0,0,0,0,0,0c0.9,0,1.7,0,2.6,0c11.9,0.1,22.4,1.1,31.7,2.6c8.9,1.5,16.7,3.6,23.5,6.1c0,0,0,0,0,0
		c4.7,1.8,8.9,3.7,12.7,5.8C663.3,178.6,662.7,205.7,655.5,210.2z"/>
	<path class="st12" d="M596,149.4c-11.1,2.3-50,11.1-70.8,26.5c0.4-0.8,12.2-22.5,36.5-29.2c0,0,0,0,0,0c0.9,0,1.7,0,2.6,0
		C576.2,146.8,586.8,147.8,596,149.4z"/>
	<path class="st12" d="M632.2,161.2c-15.4,2.6-37.6,7.3-51.6,14.7c0,0,13.3-17.8,38.9-20.6c0,0,0,0,0,0
		C624.3,157.2,628.5,159.1,632.2,161.2z"/>
	<path class="st12" d="M527.8,149.5c-12.7,7.4-28.3,17.5-37.2,27.5c0,0,2.8-10.5,12.5-20.5C510.1,153.7,518.3,151.3,527.8,149.5z"/>
</g>
<g>
	<g>
		<path class="st11" d="M974.1,470.6h-47.8c-7.3,0-13.3-5.9-13.3-13.3v-64.1c0-7.3,5.9-13.3,13.3-13.3h47.8
			c7.3,0,13.3,5.9,13.3,13.3v64.1C987.4,464.7,981.4,470.6,974.1,470.6z"/>
		<path class="st10" d="M1046.4,470.6h-68.2c-8.4,0-15.3-6.8-15.3-15.3v-60.1c0-8.4,6.8-15.3,15.3-15.3h68.2
			c8.4,0,15.3,6.8,15.3,15.3v60.1C1061.7,463.8,1054.8,470.6,1046.4,470.6z"/>
		<path class="st14" d="M964.7,391.5l96.2,1.8c0,0,14.5-3.6,13.4-16.7c-1.2-13.7-10.4-15.9-41.1-18.3c-30.7-2.5-110.8-10.5-122.3,8
			c-6.7,10.9-8.9,24.9,2.2,27C913.1,393.2,930.9,374,964.7,391.5z"/>
	</g>
</g>
<rect x="280.5" y="204.8" class="st15" width="752.3" height="33.6"/>
<rect x="712.1" y="452.8" class="st15" width="360.6" height="32.2"/>
<g>
	<g>
		<path class="st11" d="M365.2,470.6H413c7.3,0,13.3-5.9,13.3-13.3v-64.1c0-7.3-5.9-13.3-13.3-13.3h-47.8c-7.3,0-13.3,5.9-13.3,13.3
			v64.1C352,464.7,357.9,470.6,365.2,470.6z"/>
		<path class="st10" d="M293,470.6h68.2c8.4,0,15.3-6.8,15.3-15.3v-60.1c0-8.4-6.8-15.3-15.3-15.3H293c-8.4,0-15.3,6.8-15.3,15.3
			v60.1C277.7,463.8,284.5,470.6,293,470.6z"/>
		<path class="st12" d="M374.6,391.5l-96.2,1.8c0,0-14.5-3.6-13.4-16.7c1.2-13.7,10.4-15.9,41.1-18.3c30.7-2.5,110.8-10.5,122.3,8
			c6.7,10.9,8.9,24.9-2.2,27C426.3,393.2,408.4,374,374.6,391.5z"/>
	</g>
</g>
<g>
	<g>
		<path class="st11" d="M273.4,470.6h47.8c7.3,0,13.3-5.9,13.3-13.3v-64.1c0-7.3-5.9-13.3-13.3-13.3h-47.8
			c-7.3,0-13.3,5.9-13.3,13.3v64.1C260.1,464.7,266.1,470.6,273.4,470.6z"/>
		<path class="st10" d="M201.1,470.6h68.2c8.4,0,15.3-6.8,15.3-15.3v-60.1c0-8.4-6.8-15.3-15.3-15.3h-68.2
			c-8.4,0-15.3,6.8-15.3,15.3v60.1C185.8,463.8,192.7,470.6,201.1,470.6z"/>
		<path class="st13" d="M282.8,391.5l-96.2,1.8c0,0-14.5-3.6-13.4-16.7c1.2-13.7,10.4-15.9,41.1-18.3c30.7-2.5,110.8-10.5,122.3,8
			c6.7,10.9,8.9,24.9-2.2,27C334.4,393.2,316.6,374,282.8,391.5z"/>
	</g>
</g>
<g>
	<g>
		<path class="st11" d="M177.6,470.6h47.8c7.3,0,13.3-5.9,13.3-13.3v-64.1c0-7.3-5.9-13.3-13.3-13.3h-47.8
			c-7.3,0-13.3,5.9-13.3,13.3v64.1C164.3,464.7,170.2,470.6,177.6,470.6z"/>
		<path class="st10" d="M105.3,470.6h68.2c8.4,0,15.3-6.8,15.3-15.3v-60.1c0-8.4-6.8-15.3-15.3-15.3h-68.2
			c-8.4,0-15.3,6.8-15.3,15.3v60.1C90,463.8,96.8,470.6,105.3,470.6z"/>
		<path class="st14" d="M186.9,391.5l-96.2,1.8c0,0-14.5-3.6-13.4-16.7c1.2-13.7,10.4-15.9,41.1-18.3c30.7-2.5,110.8-10.5,122.3,8
			c6.7,10.9,8.9,24.9-2.2,27C238.6,393.2,220.8,374,186.9,391.5z"/>
	</g>
</g>
<rect x="78.9" y="452.8" transform="matrix(-1 -1.224647e-16 1.224647e-16 -1 518.5035 937.8039)" class="st15" width="360.6" height="32.2"/>
<g>
	<g>
		<g>
			<path class="st11" d="M76.6,625.3c-25.5,4.5-37.7,16.9-37.7,37.7c0,20.8,16.9,37.7,37.7,37.7c20.8,0,39.3-14.4,39.3-35.2
				C115.9,644.6,97.1,621.7,76.6,625.3z M61.3,662.8c0-8.7,5.1-13.8,15.7-15.7c8.6-1.5,16.4,8.1,16.4,16.8c0,8.7-7.7,14.7-16.4,14.7
				C68.4,678.6,61.3,671.5,61.3,662.8z"/>
			<path class="st12" d="M76.3,636.1c-18.1,3.6-26.6,12.6-26.3,27.4c0.3,14.8,12.6,26.6,27.4,26.3c14.8-0.3,27.8-10.9,27.5-25.7
				C104.6,649.2,90.8,633.2,76.3,636.1z M77.1,678.6c-8.7,0-15.7-7-15.7-15.7c0-8.7,5.1-13.8,15.7-15.7c8.6-1.5,16.4,8.1,16.4,16.8
				C93.5,672.6,85.8,678.6,77.1,678.6z"/>
		</g>
	</g>
	<g>
		<g>
			<path class="st11" d="M186.6,625.3c-25.5,4.5-37.7,16.9-37.7,37.7c0,20.8,16.9,37.7,37.7,37.7s39.3-14.4,39.3-35.2
				C225.9,644.6,207.1,621.7,186.6,625.3z M171.3,662.8c0-8.7,5.1-13.8,15.7-15.7c8.6-1.5,16.4,8.1,16.4,16.8
				c0,8.7-7.7,14.7-16.4,14.7C178.4,678.6,171.3,671.5,171.3,662.8z"/>
			<path class="st12" d="M186.2,636.1c-18.1,3.6-26.6,12.6-26.3,27.4c0.3,14.8,12.6,26.6,27.4,26.3c14.8-0.3,27.8-10.9,27.5-25.7
				C214.5,649.2,200.8,633.2,186.2,636.1z M187,678.6c-8.7,0-15.7-7-15.7-15.7c0-8.7,5.1-13.8,15.7-15.7c8.6-1.5,16.4,8.1,16.4,16.8
				C203.5,672.6,195.7,678.6,187,678.6z"/>
		</g>
	</g>
	<g>
		<g>
			<path class="st11" d="M124.3,625.3c-25.5,4.5-37.7,16.9-37.7,37.7c0,20.8,16.9,37.7,37.7,37.7s39.3-14.4,39.3-35.2
				C163.7,644.6,144.8,621.7,124.3,625.3z M109.1,662.8c0-8.7,5.1-13.8,15.7-15.7c8.6-1.5,16.4,8.1,16.4,16.8
				c0,8.7-7.7,14.7-16.4,14.7C116.1,678.6,109.1,671.5,109.1,662.8z"/>
			<path class="st16" d="M124,636.1c-18.1,3.6-26.6,12.6-26.3,27.4c0.3,14.8,12.6,26.6,27.4,26.3c14.8-0.3,27.8-10.9,27.5-25.7
				C152.3,649.2,138.6,633.2,124,636.1z M124.8,678.6c-8.7,0-15.7-7-15.7-15.7c0-8.7,5.1-13.8,15.7-15.7c8.6-1.5,16.4,8.1,16.4,16.8
				C141.2,672.6,133.5,678.6,124.8,678.6z"/>
		</g>
	</g>
	<g>
		<g>
			<path class="st11" d="M244,625.3c-25.5,4.5-37.7,16.9-37.7,37.7c0,20.8,16.9,37.7,37.7,37.7c20.8,0,39.3-14.4,39.3-35.2
				C283.3,644.6,264.5,621.7,244,625.3z M228.7,662.8c0-8.7,5.1-13.8,15.7-15.7c8.6-1.5,16.4,8.1,16.4,16.8
				c0,8.7-7.7,14.7-16.4,14.7C235.8,678.6,228.7,671.5,228.7,662.8z"/>
			<path class="st16" d="M243.6,636.1c-18.1,3.6-26.6,12.6-26.3,27.4c0.3,14.8,12.6,26.6,27.4,26.3c14.8-0.3,27.8-10.9,27.5-25.7
				C271.9,649.2,258.2,633.2,243.6,636.1z M244.4,678.6c-8.7,0-15.7-7-15.7-15.7c0-8.7,5.1-13.8,15.7-15.7
				c8.6-1.5,16.4,8.1,16.4,16.8C260.9,672.6,253.1,678.6,244.4,678.6z"/>
		</g>
	</g>
	<g>
		<g>
			<path class="st11" d="M281.2,625.3c-25.5,4.5-37.7,16.9-37.7,37.7c0,20.8,16.9,37.7,37.7,37.7c20.8,0,39.3-14.4,39.3-35.2
				C320.5,644.6,301.7,621.7,281.2,625.3z M266,662.8c0-8.7,5.1-13.8,15.7-15.7c8.6-1.5,16.4,8.1,16.4,16.8
				c0,8.7-7.7,14.7-16.4,14.7C273,678.6,266,671.5,266,662.8z"/>
			<path class="st12" d="M280.9,636.1c-18.1,3.6-26.6,12.6-26.3,27.4c0.3,14.8,12.6,26.6,27.4,26.3c14.8-0.3,27.8-10.9,27.5-25.7
				C309.2,649.2,295.4,633.2,280.9,636.1z M281.7,678.6c-8.7,0-15.7-7-15.7-15.7c0-8.7,5.1-13.8,15.7-15.7
				c8.6-1.5,16.4,8.1,16.4,16.8C298.1,672.6,290.4,678.6,281.7,678.6z"/>
		</g>
	</g>
	<g>
		<g>
			<path class="st11" d="M338.6,625.3c-25.5,4.5-37.7,16.9-37.7,37.7c0,20.8,16.9,37.7,37.7,37.7c20.8,0,39.3-14.4,39.3-35.2
				C377.9,644.6,359.1,621.7,338.6,625.3z M323.4,662.8c0-8.7,5.1-13.8,15.7-15.7c8.6-1.5,16.4,8.1,16.4,16.8
				c0,8.7-7.7,14.7-16.4,14.7C330.4,678.6,323.4,671.5,323.4,662.8z"/>
			<path class="st16" d="M338.3,636.1c-18.1,3.6-26.6,12.6-26.3,27.4c0.3,14.8,12.6,26.6,27.4,26.3c14.8-0.3,27.8-10.9,27.5-25.7
				C366.6,649.2,352.8,633.2,338.3,636.1z M339.1,678.6c-8.7,0-15.7-7-15.7-15.7c0-8.7,5.1-13.8,15.7-15.7
				c8.6-1.5,16.4,8.1,16.4,16.8C355.5,672.6,347.8,678.6,339.1,678.6z"/>
		</g>
	</g>
	<rect x="23.1" y="684.6" class="st15" width="360.6" height="32.2"/>
</g>
<polygon class="st4" points="849.6,620.3 868.9,836 1033.3,836 1005.5,622.8 "/>
<polygon class="st17" points="813.9,617.3 832.7,627 849.6,620.3 868.9,836 800.7,836 "/>
<path class="st13" d="M1228.3,842.9v1.3c0,4.3-3.5,7.8-7.8,7.8H32.5v-0.1c0-3.3,0-6.7-0.1-10c0,0,0,0,0,0c-0.1-2.2-0.2-4.5-0.3-6.7
	h1188.3C1224.8,835.1,1228.3,838.6,1228.3,842.9z"/>
<g>
	<g>
		<g>
			<path class="st1" d="M924.1,774.6l-0.4-0.2c0.1-0.1,6.5-10.8,17.5-23c10.2-11.2,26.5-26,46.5-32.7l0.1,0.4
				c-19.9,6.7-36.1,21.4-46.3,32.6C930.6,763.8,924.2,774.5,924.1,774.6z"/>
		</g>
		<g>
			<path class="st1" d="M955.2,717.1c0,0-3,7.6-2.8,10.8c0.2,3.2,4.8,8.9,4.8,8.9s3.5-6.8,3.5-9.4
				C960.6,725,955.2,717.1,955.2,717.1z"/>
			<path class="st1" d="M974.8,744.8c0,0-5-6.5-7.8-8c-2.8-1.5-10.1-0.5-10.1-0.5s4,6.6,6.2,7.8
				C965.3,745.4,974.8,744.8,974.8,744.8z"/>
			<path class="st1" d="M969.5,711.8c0,0-5.4,6.1-6.3,9.2c-0.9,3.1,1.5,10,1.5,10s5.7-5.2,6.5-7.6
				C971.9,721,969.5,711.8,969.5,711.8z"/>
			<path class="st1" d="M983.3,737.1c0,0-5.6-5.9-8.6-7.1c-3-1.2-10.1,0.5-10.1,0.5s4.7,6.1,7,7.1
				C973.9,738.7,983.3,737.1,983.3,737.1z"/>
			<path class="st1" d="M983.2,709c0,0-6.8,4.1-8.6,6.7c-1.8,2.6-1.6,9.8-1.6,9.8s6.8-3.2,8.2-5.2C982.8,718.3,983.2,709,983.2,709z
				"/>
			<path class="st1" d="M992.1,727.9c0,0-6.6-4.5-9.7-5c-3.1-0.5-9.5,2.6-9.5,2.6s5.7,4.9,8.1,5.3
				C983.4,731.3,992.1,727.9,992.1,727.9z"/>
			<path class="st1" d="M1000.6,711c0,0-8,0.2-10.8,1.5c-2.8,1.4-6.2,7.7-6.2,7.7s7.5,0.6,9.7-0.4
				C995.6,718.8,1000.6,711,1000.6,711z"/>
			<path class="st1" d="M946.8,724.7c0,0-2.9,7.6-2.7,10.8c0.2,3.2,4.8,8.9,4.8,8.9s3.5-6.9,3.4-9.4
				C952.2,732.5,946.8,724.7,946.8,724.7z"/>
			<path class="st1" d="M967.5,749c0,0-6.2-5.4-9.2-6.3c-3.1-0.9-10,1.4-10,1.4s5.2,5.6,7.6,6.4C958.4,751.4,967.5,749,967.5,749z"
				/>
			<path class="st1" d="M936.9,732c0,0-3.4,8.7-3.2,12.3c0.2,3.6,5.4,10.1,5.4,10.1s4-7.8,3.9-10.7C943,740.9,936.9,732,936.9,732z"
				/>
			<path class="st1" d="M961.3,756c0,0-7.9-4.9-11.6-5.4c-3.6-0.5-10.9,3.4-10.9,3.4s6.9,5.4,9.8,5.8
				C951.4,760.3,961.3,756,961.3,756z"/>
			<path class="st1" d="M926.2,739.7c0,0-3.1,10.1-2.6,14.2c0.5,4.1,6.9,11,6.9,11s3.9-9.2,3.6-12.4
				C933.8,749.3,926.2,739.7,926.2,739.7z"/>
			<path class="st1" d="M956,763.5c0,0-9.7-4.3-13.8-4.3c-4.1,0-11.8,5.5-11.8,5.5s8.6,4.9,11.9,5C945.6,769.9,956,763.5,956,763.5z
				"/>
		</g>
	</g>
	<g>
		<g>
			<path class="st1" d="M909.7,770.1l0.4,0.2c0.1-0.1,5.4-11.4,9.3-27.4c3.6-14.7,6.8-36.5,1.3-56.8l-0.4,0.1
				c5.5,20.2,2.4,41.9-1.3,56.6C915,758.7,909.7,770,909.7,770.1z"/>
		</g>
		<g>
			<path class="st1" d="M940,712.2c0,0-4.7,6.7-7.4,8.3c-2.8,1.6-10.1,1-10.1,1s3.7-6.7,5.8-8.1C930.5,712.1,940,712.2,940,712.2z"
				/>
			<path class="st1" d="M906.1,711.4c0,0,8.2,0.5,11,2c2.8,1.5,6.1,8.1,6.1,8.1s-7.7,0.3-10-0.8C911,719.6,906.1,711.4,906.1,711.4z
				"/>
			<path class="st1" d="M936.6,697.4c0,0-2.1,7.9-4.1,10.4c-2,2.5-9.1,4.4-9.1,4.4s1.2-7.6,2.7-9.6
				C927.5,700.5,936.6,697.4,936.6,697.4z"/>
			<path class="st1" d="M907.8,700.1c0,0,8.1,1.3,10.7,3.1c2.6,1.8,5.2,8.7,5.2,8.7s-7.7-0.5-9.8-1.8
				C911.8,708.7,907.8,700.1,907.8,700.1z"/>
			<path class="st1" d="M931.2,684.4c0,0,0.4,8-0.8,10.9c-1.2,2.9-7.2,6.7-7.2,6.7s-1.1-7.4-0.3-9.7
				C923.7,690,931.2,684.4,931.2,684.4z"/>
			<path class="st1" d="M910.6,687.6c0,0,7.4,3,9.6,5.2c2.1,2.3,3.1,9.4,3.1,9.4s-7.2-2-9-3.8C912.5,696.7,910.6,687.6,910.6,687.6z
				"/>
			<path class="st1" d="M919.8,671.1c0,0,4.3,6.7,4.7,9.8c0.4,3.1-2.9,9.5-2.9,9.5s-4.7-5.9-5.1-8.3
				C916.1,679.6,919.8,671.1,919.8,671.1z"/>
			<path class="st1" d="M938.5,723.4c0,0-4.7,6.7-7.5,8.3c-2.7,1.6-10,1-10,1s3.8-6.7,5.9-8.1C929,723.3,938.5,723.4,938.5,723.4z"
				/>
			<path class="st1" d="M906.7,719.8c0,0,7.9,2.1,10.4,4.2c2.5,2,4.4,9.1,4.4,9.1s-7.6-1.2-9.6-2.8
				C909.9,728.7,906.7,719.8,906.7,719.8z"/>
		</g>
	</g>
	<path class="st1" d="M966.6,699.3c0,0-4.1,6.8-6.7,8.6c-2.6,1.8-9.8,1.6-9.8,1.6s3.2-6.8,5.2-8.2
		C957.3,699.7,966.6,699.3,966.6,699.3z"/>
	<path class="st1" d="M947.8,690.5c0,0,4.5,6.6,5,9.7c0.5,3.1-2.6,9.5-2.6,9.5s-4.9-5.7-5.4-8.1
		C944.3,699.1,947.8,690.5,947.8,690.5z"/>
	<path class="st1" d="M964.7,681.9c0,0-0.2,8-1.5,10.8c-1.4,2.8-7.7,6.2-7.7,6.2s-0.6-7.5,0.4-9.7
		C956.8,686.9,964.7,681.9,964.7,681.9z"/>
</g>
</svg>
